<svg width="102" height="26" viewBox="0 0 102 26" fill="none" xmlns="http://www.w3.org/2000/svg">
<g clip-path="url(#clip0_1675_398)" filter="url(#filter0_d_1675_398)">
<path d="M53.8497 20.5241H58.3705L47.4229 0H43.3087L44.8927 3.08401L34.1851 20.5241H36.9253L39.0962 16.307H51.6837L53.8497 20.5241ZM40.6156 13.3538L45.3967 4.0652L50.1671 13.3538H40.6156Z" fill="white"/>
<path d="M17.1301 10.0139C18.7951 9.05001 19.9041 7.36083 19.9041 5.43116C19.9031 2.43181 17.2313 0 13.9351 0H3V20.5241H13.9351C17.4914 20.5241 20.6325 18.0048 20.6325 14.8967C20.6325 12.8055 19.0668 10.9855 17.1301 10.0148V10.0139ZM6.6614 1.00331C6.6614 1.00331 16.4277 -0.376122 16.7871 5.25128C17.1465 10.8787 6.6614 9.202 6.6614 9.202V1.00331ZM6.6614 19.0668V10.3352C6.6614 10.3352 16.789 9.31744 16.9808 14.8592C17.1889 20.8599 6.6614 19.0668 6.6614 19.0668Z" fill="white"/>
<path d="M95.1313 0L87.2015 16.6369L78.3457 0H74.2314V20.5241H75.829V3.11094L84.7724 20.5241H89.2702L87.8104 17.7816L95.3375 4.38745V20.5241H98.9999V0H95.1313Z" fill="white"/>
</g>
<defs>
<filter id="filter0_d_1675_398" x="0.351724" y="0" width="101.297" height="25.82" filterUnits="userSpaceOnUse" color-interpolation-filters="sRGB">
<feFlood flood-opacity="0" result="BackgroundImageFix"/>
<feColorMatrix in="SourceAlpha" type="matrix" values="0 0 0 0 0 0 0 0 0 0 0 0 0 0 0 0 0 0 127 0" result="hardAlpha"/>
<feOffset dy="2.64828"/>
<feGaussianBlur stdDeviation="1.32414"/>
<feComposite in2="hardAlpha" operator="out"/>
<feColorMatrix type="matrix" values="0 0 0 0 0 0 0 0 0 0 0 0 0 0 0 0 0 0 0.25 0"/>
<feBlend mode="normal" in2="BackgroundImageFix" result="effect1_dropShadow_1675_398"/>
<feBlend mode="normal" in="SourceGraphic" in2="effect1_dropShadow_1675_398" result="shape"/>
</filter>
<clipPath id="clip0_1675_398">
<rect width="96" height="20.5241" fill="white" transform="translate(3)"/>
</clipPath>
</defs>
</svg>
